<?xml version="1.0" encoding="utf-8"?>
<!-- Generator: Adobe Illustrator 26.0.1, SVG Export Plug-In . SVG Version: 6.00 Build 0)  -->
<svg version="1.1" id="Layer_1" xmlns="http://www.w3.org/2000/svg" xmlns:xlink="http://www.w3.org/1999/xlink" x="0px" y="0px"
	 viewBox="0 0 1085.32 422.37" style="enable-background:new 0 0 1085.32 422.37;" xml:space="preserve">
<style type="text/css">
	.st0{fill:#0E416C;}
	.st1{fill:#FFFFFF;}
	.st2{fill:#003C71;}
	.st3{fill:#3CA2DB;}
</style>
<g id="surface1">
	<path class="st0" d="M105.62,303.07c3.6,0,6.86-1.71,6.86-8.3c0-4.55-1.84-8.7-6.86-8.7h-19.4v16.99H105.62z M105.15,276.07
		c4.26,0,6.52-2.6,6.52-7.03c0-5.75-3.51-7.08-6.52-7.08H86.22v14.11H105.15z M74.32,251.5h31.53c12.84,0,17.5,7.67,17.5,16.57
		c0,5.71-2.43,12.14-8.5,13.27c5.18,0.94,9.49,6.09,9.49,13.98c0,11.53-5.21,18.22-18.26,18.22H78.29c-2.2,0-3.97-1.78-3.97-3.98"/>
	<path class="st0" d="M166.47,289.27l-6.97-22.14l-7.46,22.14H166.47z M155.52,251.5h7.76c1.72,0,3.25,1.11,3.78,2.75l19.26,59.29
		h-9.73c-1.72,0-3.25-1.12-3.78-2.76l-3.52-10.99h-20.32l-3.59,11c-0.53,1.63-2.05,2.75-3.77,2.75h-9.86l20.02-59.34
		C152.31,252.59,153.82,251.5,155.52,251.5"/>
	<path class="st0" d="M201.71,251.5h8.06l24.61,40.09v-36.11c0-2.2,1.78-3.97,3.97-3.97h7.89v62.03h-11.86l-24.7-39.62v39.62h-7.98
		c-2.2,0-3.97-1.78-3.97-3.97v-54.09C197.74,253.28,199.52,251.5,201.71,251.5"/>
	<path class="st0" d="M260.28,251.5h7.43c2.19,0,3.97,1.78,3.97,3.97v21.96h4.99l14.55-24.02c0.73-1.19,2.01-1.91,3.4-1.91h11.59
		l-18.98,31.07l18.98,30.96h-11.6c-1.38,0-2.66-0.72-3.39-1.89l-14.55-23.74h-4.91v21.66c0,2.19-1.78,3.97-3.97,3.97h-7.51"/>
	<path class="st0" d="M377.32,289.27l-6.97-22.14l-7.46,22.14H377.32z M366.38,251.5h7.76c1.72,0,3.25,1.11,3.78,2.75l19.25,59.29
		h-9.73c-1.73,0-3.26-1.12-3.78-2.76l-3.52-10.99h-20.32l-3.59,11c-0.53,1.63-2.05,2.75-3.78,2.75h-9.86l20.02-59.34
		C363.16,252.59,364.68,251.5,366.38,251.5"/>
	<path class="st0" d="M420.45,302.6H443c2.2,0,3.98,1.78,3.98,3.97v6.96h-34.42c-2.2,0-3.97-1.78-3.97-3.98V251.5h7.89
		c2.2,0,3.97,1.78,3.97,3.98"/>
	<g>
		<g>
			<path class="st0" d="M456.62,302.33c7.71,0.68,12.09,0.93,12.12-7.96v-38.9c0-2.2,1.78-3.97,3.98-3.97h7.89v48.05
				c0,3.98-0.26,9.75-4.5,12.46c-3.65,2.34-11.39,2.86-16.55,1.91c-1.81-0.34-3.07-1.99-3.05-3.82"/>
		</g>
	</g>
	<path class="st0" d="M527.07,289.27l-6.97-22.14l-7.46,22.14H527.07z M516.12,251.5h7.75c1.73,0,3.25,1.11,3.78,2.75l19.26,59.29
		h-9.73c-1.73,0-3.26-1.12-3.78-2.76l-3.52-10.99h-20.32l-3.59,11c-0.53,1.63-2.05,2.75-3.77,2.75h-9.86l20.02-59.34
		C512.91,252.59,514.42,251.5,516.12,251.5"/>
	<path class="st0" d="M555.46,302.6l28.43-40.17h-28.43v-6.96c0-2.2,1.78-3.98,3.97-3.98h34.77c2.2,0,3.98,1.78,3.98,3.98v6.96
		l-27.04,40.17h27.04v6.96c0,2.2-1.78,3.98-3.98,3.98h-34.77c-2.19,0-3.97-1.78-3.97-3.98"/>
	<path class="st0" d="M614.52,251.5h7.89v62.03h-7.89c-2.19,0-3.97-1.78-3.97-3.97v-54.09C610.54,253.28,612.32,251.5,614.52,251.5"
		/>
	<path class="st0" d="M665.53,279.55c4.13,0,6.1-1.21,6.1-8.7c0-7.05-2.38-8.79-6.1-8.79h-18.04v17.5H665.53z M635.58,251.5h31.11
		c9.68,0,16.88,4.53,16.88,19.34c0,15.36-6.43,17.18-9.88,18.26l11.75,24.43H674.7c-1.58,0-3.01-0.93-3.64-2.38l-9.22-21.09h-14.39
		v19.5c0,2.19-1.79,3.97-3.98,3.97h-7.89"/>
	<path class="st0" d="M729.36,289.27l-6.97-22.14l-7.46,22.14H729.36z M718.41,251.5h7.76c1.72,0,3.25,1.11,3.78,2.75l19.25,59.29
		h-9.73c-1.72,0-3.25-1.12-3.78-2.76l-3.52-10.99h-20.32l-3.59,11c-0.53,1.63-2.05,2.75-3.78,2.75h-9.86l20.02-59.34
		C715.19,252.59,716.7,251.5,718.41,251.5"/>
	<path class="st0" d="M719.83,204.28c-4.95,0-8.73,4.05-8.73,8.95c0,4.89,3.78,8.86,8.73,8.86c4.9,0,9.01-3.96,9.01-8.86
		C728.84,208.33,724.73,204.28,719.83,204.28"/>
	<path class="st0" d="M682.15,125.81c4.93,0,8.89-3.99,8.89-8.89c0-4.9-3.96-8.89-8.89-8.89c-4.89,0-8.79,3.99-8.79,8.89
		C673.36,121.82,677.26,125.81,682.15,125.81"/>
	<path class="st0" d="M593.98,142.87v-3.07H568.4v-4.9c0-7.62,3.21-11.51,9.82-11.51c2.14,0,4.14,0.68,5.98,2.08
		c1.69,1.29,4.04,1.25,5.53-0.27l4.06-4.11c-4.57-4.74-9.14-7.36-14.38-7.36c-13.37,0-21.33,9.99-21.33,22.68v3.38
		c-2.41,0-4.37,1.96-4.37,4.37v5.45h33.53C590.96,149.62,593.98,146.6,593.98,142.87"/>
	<path class="st0" d="M297.05,125.85c4.86,0,8.91-3.99,8.91-8.89c0-4.89-4.05-8.91-8.91-8.91c-4.87,0-8.83,4.02-8.83,8.91
		C288.23,121.86,292.19,125.85,297.05,125.85"/>
	<path class="st0" d="M217.27,204.68c-3.17,0.77-5.66,3.38-6.38,6.56c-1.39,6.18,3.46,11.66,9.67,10.88
		c3.71-0.46,6.87-3.26,7.62-6.93C229.5,208.75,223.61,203.15,217.27,204.68"/>
	<path class="st0" d="M241.76,204.43c-4.89,0-8.67,4.02-8.67,8.95c0,4.87,3.78,8.82,8.67,8.82c4.9,0,8.92-3.96,8.92-8.82
		C250.68,208.45,246.66,204.43,241.76,204.43"/>
	<path class="st0" d="M107.11,125.8c3.71-0.46,6.87-3.26,7.62-6.93c1.32-6.45-4.58-12.04-10.91-10.51
		c-3.16,0.77-5.65,3.38-6.37,6.56C96.04,121.1,100.89,126.58,107.11,125.8"/>
	<path class="st0" d="M128.3,125.88c4.89,0,8.92-3.96,8.92-8.82c0-4.92-4.02-8.95-8.92-8.95s-8.68,4.02-8.68,8.95
		C119.62,121.92,123.4,125.88,128.3,125.88"/>
	<path class="st0" d="M355.04,204.25c-4.75,0-8.71,4.05-8.71,8.94c0,4.9,3.96,8.89,8.71,8.89c4.86,0,9.04-3.99,9.04-8.89
		C364.08,208.3,359.91,204.25,355.04,204.25"/>
	<path class="st0" d="M472.39,108.11h-10.68v84.75h10.68c2.33,0,4.22-1.89,4.22-4.22v-76.3C476.61,110,474.72,108.11,472.39,108.11"
		/>
	<path class="st0" d="M133.27,173.79c0,10.55-8.31,15.93-16.02,15.93h-11.68c-10.56,0-15.93-8.31-15.93-15.93
		c0-7.7,5.37-16.02,15.93-16.02h27.7V173.79z M74.92,173.79c0,15.66,10.21,30.64,30.64,30.64h11.68c15.75,0,30.73-10.21,30.73-30.64
		v-30.73h-42.41C85.14,143.06,74.92,158.04,74.92,173.79"/>
	<path class="st0" d="M253.72,147.31v30.77h-69.69v-10.25l0-0.02l0-0.02v-24.77h-10.55c-2.4,0-4.35,1.95-4.35,4.35v55.03
		c0,5.93-2.29,10.4-5.65,13.46c-1.96,1.79-2.46,4.68-1.23,7.04l5.06,7.36c10.32-5.11,16.72-14.76,16.72-30.38v-7.02h80.29
		c2.38,0,4.3-1.92,4.3-4.29v-45.55h-10.61C255.64,143.02,253.72,144.94,253.72,147.31"/>
	<path class="st0" d="M447.3,108.11h-10.6c-2.38,0-4.3,1.92-4.3,4.29v65.67h-30.82c1.13-27.28-19.43-54.3-64.34-51.32v10.3
		c0,1.91,1.5,3.5,3.41,3.57c31.61,1.05,45.72,16.77,45.72,35.34l0.08,2.11h-81.91v-35.05H294c-2.41,0-4.35,1.95-4.35,4.35v55.03
		c0,5.93-2.29,10.4-5.65,13.46c-1.96,1.79-2.46,4.68-1.23,7.04l5.06,7.36c10.31-5.11,16.72-14.76,16.72-30.38v-7.02h138.46
		c2.38,0,4.29-1.92,4.29-4.29v-23.8c0-0.02,0-0.03,0-0.05s0-0.03,0-0.04"/>
	<path class="st0" d="M749.34,164.7v-21.68h-10.69c-2.37,0-4.29,1.93-4.29,4.29v30.9h-44.82v-35.19h-10.39
		c-2.37,0-4.29,1.93-4.29,4.29v30.9h-42.04v-70.12h-9.39c-3.09,0-5.59,2.5-5.59,5.58v64.54h-84.03V143h-9.31
		c-3.08,0-5.58,2.5-5.58,5.58v15.96c0,0.05,0,0.12,0,0.18s0,0.12,0,0.18v22.02h0.02c0.17,3.33,2.91,5.97,6.27,5.97l219.85-0.11
		c2.37,0,4.29-1.93,4.29-4.3V164.7"/>
	<path class="st1" d="M805.55,122.05c0.25-4.58,5.48-14.05,15.11-14.01l49.07-0.04c3.24,9.64,19.03,50.97,24.2,59.68
		c5.54,9.23,18.74,27.52,19.48,28.49l1.07,1.46c1.39-0.23,3.96-0.66,5.01-0.81l0.48-0.06l0.73,0.38c0.32,0.16,0.52,0.26,1.02,0.59
		l0.68,0.45v3.01l4.75,7.33l20.25-2.96c1.44-1.95,6.04-6.45,9.64-11.4l4.3-3.03l-0.94,0.85c0.09,0.32,0.17,0.63,0.26,0.94
		c0.19,0.73,0.37,1.43,0.64,1.91c0.96,1.54,3.5,3.09,16.01,9.75l0.41,0.22c3.84,2.06,9.11,4.88,11.96,6.58l1.1,0.65l-0.45,1.2
		c-1.58,4.15-5.53,13.13-6.85,15.41c-0.13,0.21-12.76,21.39-14.36,24.12l-0.12,0.2l-0.18,0.16c-0.41,0.37-2.68,2.5-5,4.67
		c-2.31,2.18-4.68,4.39-5.3,4.96l-0.26,0.23l-0.34,0.1c-1.54,0.45-12.88,4.07-14.88,4.7l-6.73,5.89c-0.14,0.91-0.67,4.41-0.67,4.41
		l-0.64,0.37c-1.93,1.11-10.48,5.9-17.34,9.74c-4.68,2.62-9.11,5.1-9.41,5.28l-0.2,0.12l-0.22,0.05
		c-0.73,0.18-16.36,4.71-26.79,7.75l-19.28,12.06l-8.57-23.12l0.21-10.1l-16.1-27.32l-13.32-10.72l-6.72-26.8l-9-6.93l-2.71-5.22"/>
	<path class="st2" d="M853.41,280.32L837.3,253l-13.32-10.73l-6.72-26.8l-9-6.93l-2.71-5.22v94.4c0,8.69,7.04,15.73,15.73,15.73
		h40.48l-8.57-23.04"/>
	<g>
		<g>
			<path class="st3" d="M1011,123.74c0-8.69-7.05-15.74-15.74-15.74H869.64c3.24,9.64,19.02,50.94,24.19,59.65
				c5.54,9.23,18.75,27.52,19.48,28.5l1.07,1.46c1.39-0.23,3.96-0.67,5.01-0.81l0.48-0.06l0.73,0.38c0.31,0.16,0.52,0.26,1.02,0.59
				l0.68,0.45v3.01l4.75,7.34l20.26-2.96c1.44-1.95,6.04-6.45,9.64-11.4l4.3-3.03l-0.95,0.85c0.09,0.32,0.18,0.63,0.26,0.95
				c0.19,0.73,0.37,1.43,0.65,1.9c0.96,1.54,3.5,3.09,16.01,9.76l0.41,0.22c3.84,2.06,9.11,4.88,11.96,6.58l1.09,0.65l-0.45,1.2
				c-1.59,4.16-5.53,13.14-6.86,15.41c-0.12,0.21-12.76,21.4-14.36,24.12l-0.12,0.2l-0.18,0.16c-0.42,0.37-2.68,2.5-5,4.68
				c-2.32,2.18-4.68,4.39-5.31,4.96l-0.26,0.24l-0.33,0.09c-1.54,0.45-12.88,4.07-14.89,4.71l-6.73,5.89
				c-0.14,0.91-0.66,4.41-0.66,4.41l-0.64,0.36c-1.93,1.12-10.48,5.9-17.34,9.74c-4.69,2.62-9.11,5.1-9.41,5.28l-0.19,0.12
				l-0.23,0.06c-0.74,0.18-16.36,4.71-26.79,7.75l-19.16,12.06l133.49-0.03c8.66-0.04,15.86-7.12,15.74-16.25"/>
		</g>
	</g>
</g>
</svg>
